<?xml version="1.0" encoding="utf-8"?>
<svg viewBox="0 0 500 500" xmlns="http://www.w3.org/2000/svg">
  <g transform="matrix(19.89388084411621, 0, 0, 19.586994171142578, -73.27636174191122, -20059.014269680192)" style="">
    <path style="color: rgb(0, 0, 0); font-style: normal; font-variant: normal; font-weight: normal; font-stretch: normal; font-size: medium; line-height: normal; font-family: sans-serif; text-indent: 0px; text-align: start; text-decoration: none solid rgb(0, 0, 0); letter-spacing: normal; word-spacing: normal; text-transform: none; direction: ltr; writing-mode: lr-tb; baseline-shift: baseline; text-anchor: start; white-space: normal; clip-rule: nonzero; display: inline; overflow: visible; visibility: visible; opacity: 1; isolation: auto; mix-blend-mode: normal; color-interpolation: srgb; color-interpolation-filters: linearrgb; fill-opacity: 1; fill-rule: nonzero; stroke: none; stroke-width: 0.999997; stroke-linecap: round; stroke-linejoin: round; stroke-miterlimit: 4; stroke-dasharray: none; stroke-dashoffset: 0; stroke-opacity: 1; color-rendering: auto; image-rendering: auto; shape-rendering: auto; text-rendering: auto; fill: rgb(255, 255, 255);" d="m 19.5006,1028.3621 c -0.0643,2e-4 -0.12797,0.013 -0.18751,0.037 -1.57955,0.052 -3.02025,0.6823 -4.06266,1.7284 -1.66226,1.6682 -3.49656,3.7495 -5.56272,3.7576 -1.56193,0.01 -3.12754,0.012 -4.68964,0.018 -0.27614,10e-4 -0.49912,0.2258 -0.49807,0.502 0.0226,5.7844 4.73657,10.4677 10.5219,10.4564 5.5619,-0.018 10.13729,-4.4381 10.45941,-9.8725 0.0114,-0.192 0.0195,-0.4259 0.0195,-0.625 1.5e-4,-0.01 1.5e-4,-0.014 0,-0.022 -0.0847,-2.0569 -0.93893,-3.5681 -2.09774,-4.5349 -1.12245,-0.9364 -2.50308,-1.3589 -3.76187,-1.4217 -0.0274,-0.01 -0.0555,-0.015 -0.084,-0.02 -0.0117,-10e-4 -0.0235,-0 -0.0352,-0 -0.002,-7e-4 -0.004,-10e-4 -0.006,-0 -0.005,-10e-5 -0.0104,-10e-5 -0.0156,0 z m -0.008,1.0019 c 1.08274,0.035 2.31419,0.4137 3.26966,1.2109 0.95734,0.7987 1.66349,2.0003 1.73835,3.8064 3e-5,7e-4 -3e-5,10e-4 0,0 -5.5e-4,0.1654 -0.01,0.3769 -0.0195,0.5449 -0.29086,4.9071 -4.42908,8.9159 -9.46132,8.9331 -5.0679,0.01 -9.26763,-3.9856 -9.49452,-8.9604 1.36047,-0 2.80184,-0.01 4.16619,-0.016 2.69479,-0.011 4.65357,-2.4345 6.26587,-4.0525 0.90412,-0.9074 2.15161,-1.4664 3.5353,-1.4687 z"/>
    <path style="color: rgb(0, 0, 0); font-style: normal; font-variant: normal; font-weight: normal; font-stretch: normal; font-size: medium; line-height: normal; font-family: sans-serif; text-indent: 0px; text-align: start; text-decoration: none solid rgb(0, 0, 0); letter-spacing: normal; word-spacing: normal; text-transform: none; direction: ltr; writing-mode: lr-tb; baseline-shift: baseline; text-anchor: start; white-space: normal; clip-rule: nonzero; display: inline; overflow: visible; visibility: visible; opacity: 1; isolation: auto; mix-blend-mode: normal; color-interpolation: srgb; color-interpolation-filters: linearrgb; fill-opacity: 1; fill-rule: nonzero; stroke: none; stroke-width: 0.999997; stroke-linecap: round; stroke-linejoin: round; stroke-miterlimit: 4; stroke-dasharray: none; stroke-dashoffset: 0; stroke-opacity: 1; color-rendering: auto; image-rendering: auto; shape-rendering: auto; text-rendering: auto; fill: rgb(255, 255, 255);" d="m 19.4713,1036.4359 a 0.50006884,0.50001947 0 0 0 -0.49806,0.5019 c -0.0161,1.599 -0.87919,3.0676 -2.26767,3.8611 -1.38848,0.7936 -3.09058,0.7917 -4.47674,-0.01 a 0.50006884,0.50001947 0 1 0 -0.50002,0.8652 c 1.69269,0.974 3.77735,0.9768 5.47287,0.01 1.69552,-0.9691 2.7519,-2.7658 2.7716,-4.7185 a 0.50006884,0.50001947 0 0 0 -0.50198,-0.5117 z"/>
    <path style="color: rgb(0, 0, 0); font-style: normal; font-variant: normal; font-weight: normal; font-stretch: normal; font-size: medium; line-height: normal; font-family: sans-serif; text-indent: 0px; text-align: start; text-decoration: none solid rgb(0, 0, 0); letter-spacing: normal; word-spacing: normal; text-transform: none; direction: ltr; writing-mode: lr-tb; baseline-shift: baseline; text-anchor: start; white-space: normal; clip-rule: nonzero; display: inline; overflow: visible; visibility: visible; opacity: 1; isolation: auto; mix-blend-mode: normal; color-interpolation: srgb; color-interpolation-filters: linearrgb; fill-opacity: 1; fill-rule: nonzero; stroke: none; stroke-width: 0.999997; stroke-linecap: butt; stroke-linejoin: round; stroke-miterlimit: 4; stroke-dasharray: none; stroke-dashoffset: 0; stroke-opacity: 1; color-rendering: auto; image-rendering: auto; shape-rendering: auto; text-rendering: auto; fill: rgb(255, 255, 255);" d="m 24.36408,1031.112 -0.3633,0.9316 2.36729,0.9257 -1.73054,1.0331 0.51369,0.8594 2.60557,-1.5566 a 0.50006887,0.5000195 0 0 0 -0.0742,-0.8945 z"/>
    <path style="color: rgb(0, 0, 0); font-style: normal; font-variant: normal; font-weight: normal; font-stretch: normal; font-size: medium; line-height: normal; font-family: sans-serif; text-indent: 0px; text-align: start; text-decoration: none solid rgb(0, 0, 0); letter-spacing: normal; word-spacing: normal; text-transform: none; direction: ltr; writing-mode: lr-tb; baseline-shift: baseline; text-anchor: start; white-space: normal; clip-rule: nonzero; display: inline; overflow: visible; visibility: visible; opacity: 1; isolation: auto; mix-blend-mode: normal; color-interpolation: srgb; color-interpolation-filters: linearrgb; fill-opacity: 1; fill-rule: nonzero; stroke: none; stroke-width: 0.999997; stroke-linecap: round; stroke-linejoin: round; stroke-miterlimit: 4; stroke-dasharray: none; stroke-dashoffset: 0; stroke-opacity: 1; color-rendering: auto; image-rendering: auto; shape-rendering: auto; text-rendering: auto; fill: rgb(255, 255, 255);" d="m 14.49259,1044.3612 a 0.50006884,0.50001947 0 0 0 -0.49221,0.5078 l 0,1.9862 a 0.50006884,0.50001947 0 1 0 1.00004,0 l 0,-1.9862 a 0.50006884,0.50001947 0 0 0 -0.50783,-0.5078 z"/>
    <path style="color: rgb(0, 0, 0); font-style: normal; font-variant: normal; font-weight: normal; font-stretch: normal; font-size: medium; line-height: normal; font-family: sans-serif; text-indent: 0px; text-align: start; text-decoration: none solid rgb(0, 0, 0); letter-spacing: normal; word-spacing: normal; text-transform: none; direction: ltr; writing-mode: lr-tb; baseline-shift: baseline; text-anchor: start; white-space: normal; clip-rule: nonzero; display: inline; overflow: visible; visibility: visible; opacity: 1; isolation: auto; mix-blend-mode: normal; color-interpolation: srgb; color-interpolation-filters: linearrgb; fill-opacity: 1; fill-rule: nonzero; stroke: none; stroke-width: 0.999997; stroke-linecap: round; stroke-linejoin: round; stroke-miterlimit: 4; stroke-dasharray: none; stroke-dashoffset: 0; stroke-opacity: 1; color-rendering: auto; image-rendering: auto; shape-rendering: auto; text-rendering: auto; fill: rgb(255, 255, 255);" d="m 13.50036,1046.3611 a 0.50006884,0.50001947 0 1 0 0,0.9999 l 2.99231,0 a 0.50006884,0.50001947 0 1 0 0,-0.9999 z"/>
    <path style="color: rgb(0, 0, 0); font-style: normal; font-variant: normal; font-weight: normal; font-stretch: normal; font-size: medium; line-height: normal; font-family: sans-serif; text-indent: 0px; text-align: start; text-decoration: none solid rgb(0, 0, 0); letter-spacing: normal; word-spacing: normal; text-transform: none; direction: ltr; writing-mode: lr-tb; baseline-shift: baseline; text-anchor: start; white-space: normal; clip-rule: nonzero; display: inline; overflow: visible; visibility: visible; opacity: 1; isolation: auto; mix-blend-mode: normal; color-interpolation: srgb; color-interpolation-filters: linearrgb; fill-opacity: 1; fill-rule: nonzero; stroke: none; stroke-width: 0.999997; stroke-linecap: round; stroke-linejoin: round; stroke-miterlimit: 4; stroke-dasharray: none; stroke-dashoffset: 0; stroke-opacity: 1; color-rendering: auto; image-rendering: auto; shape-rendering: auto; text-rendering: auto; fill: rgb(255, 255, 255);" d="m 20.75065,1031.362 c -0.68446,0 -1.25005,0.5655 -1.25005,1.2499 0,0.6844 0.56559,1.2499 1.25005,1.2499 0.68446,0 1.25005,-0.5655 1.25005,-1.2499 0,-0.6844 -0.56559,-1.2499 -1.25005,-1.2499 z m 0,0.9999 c 0.144,0 0.25001,0.106 0.25001,0.25 0,0.144 -0.10601,0.25 -0.25001,0.25 -0.14399,0 -0.25001,-0.106 -0.25001,-0.25 0,-0.144 0.10602,-0.25 0.25001,-0.25 z"/>
    <path style="color: rgb(0, 0, 0); font-style: normal; font-variant: normal; font-weight: normal; font-stretch: normal; font-size: medium; line-height: normal; font-family: sans-serif; text-indent: 0px; text-align: start; text-decoration: none solid rgb(0, 0, 0); letter-spacing: normal; word-spacing: normal; text-transform: none; direction: ltr; writing-mode: lr-tb; baseline-shift: baseline; text-anchor: start; white-space: normal; clip-rule: nonzero; display: inline; overflow: visible; visibility: visible; opacity: 1; isolation: auto; mix-blend-mode: normal; color-interpolation: srgb; color-interpolation-filters: linearrgb; fill-opacity: 1; fill-rule: nonzero; stroke: none; stroke-width: 1; stroke-linecap: round; stroke-linejoin: round; stroke-miterlimit: 4; stroke-dasharray: none; stroke-dashoffset: 0; stroke-opacity: 1; color-rendering: auto; image-rendering: auto; shape-rendering: auto; text-rendering: auto; fill: rgb(255, 255, 255);" d="m 18.25836,1026.3623 a 0.50007015,0.50002078 0 1 0 0,0.9999 c 0.55431,0 0.99224,0.4398 0.99223,0.9941 a 0.50007015,0.50002078 0 1 0 1.00004,0 c 10e-6,-1.0947 -0.89755,-1.994 -1.99227,-1.994 z"/>
    <path style="color: rgb(0, 0, 0); font-style: normal; font-variant: normal; font-weight: normal; font-stretch: normal; font-size: medium; line-height: normal; font-family: sans-serif; text-indent: 0px; text-align: start; text-decoration: none solid rgb(0, 0, 0); letter-spacing: normal; word-spacing: normal; text-transform: none; direction: ltr; writing-mode: lr-tb; baseline-shift: baseline; text-anchor: start; white-space: normal; clip-rule: nonzero; display: inline; overflow: visible; visibility: visible; opacity: 1; isolation: auto; mix-blend-mode: normal; color-interpolation: srgb; color-interpolation-filters: linearrgb; fill-opacity: 1; fill-rule: nonzero; stroke: none; stroke-width: 1; stroke-linecap: round; stroke-linejoin: round; stroke-miterlimit: 4; stroke-dasharray: none; stroke-dashoffset: 0; stroke-opacity: 1; color-rendering: auto; image-rendering: auto; shape-rendering: auto; text-rendering: auto; fill: rgb(255, 255, 255);" d="m 21.24286,1026.3623 c -1.09471,0 -1.99228,0.8993 -1.99227,1.994 a 0.50007015,0.50002078 0 1 0 1.00004,0 c -10e-6,-0.5543 0.43792,-0.9941 0.99223,-0.9941 a 0.50007015,0.50002078 0 1 0 0,-0.9999 z"/>
  </g>
</svg>